<?xml version="1.0" standalone="no"?>
<!DOCTYPE svg PUBLIC "-//W3C//DTD SVG 20010904//EN"
 "http://www.w3.org/TR/2001/REC-SVG-20010904/DTD/svg10.dtd">
<svg version="1.0" xmlns="http://www.w3.org/2000/svg"
 width="500.000000pt" height="500.000000pt" viewBox="0 0 500.000000 500.000000"
 preserveAspectRatio="xMidYMid meet">
<metadata>
Created by potrace 1.14, written by Peter Selinger 2001-2017
</metadata>
<g transform="translate(0.000000,500.000000) scale(0.100000,-0.100000)"
fill="#000000" stroke="none">
<path d="M4019 4966 c-2 -2 -44 -7 -93 -11 -49 -4 -96 -8 -105 -10 -9 -1 -50
-6 -91 -9 -41 -4 -91 -9 -110 -11 -19 -2 -64 -7 -100 -10 -36 -4 -76 -8 -90
-10 -14 -2 -58 -7 -98 -10 -41 -4 -81 -8 -90 -10 -9 -1 -55 -6 -102 -10 -47
-4 -92 -9 -101 -10 -8 -2 -55 -6 -105 -10 -49 -4 -96 -9 -104 -10 -16 -3 -97
-12 -187 -20 -29 -3 -75 -7 -103 -10 -27 -3 -74 -7 -102 -10 -29 -3 -141 -15
-248 -26 -107 -11 -211 -22 -230 -24 -51 -5 -160 -16 -200 -20 -19 -2 -64 -7
-100 -10 -63 -6 -80 -8 -205 -20 -33 -3 -76 -8 -95 -10 -19 -2 -62 -7 -95 -10
-33 -3 -76 -7 -95 -10 -19 -2 -62 -6 -95 -10 -92 -8 -167 -16 -195 -20 -14 -2
-63 -7 -110 -10 -47 -4 -106 -11 -133 -16 -156 -29 -280 -151 -323 -320 -23
-91 -14 -240 19 -312 24 -51 51 -152 62 -231 3 -21 7 -41 9 -45 2 -3 7 -33 11
-66 3 -33 8 -69 10 -80 5 -22 11 -65 20 -140 3 -27 8 -63 10 -80 2 -16 7 -57
10 -90 6 -66 13 -116 20 -155 2 -14 7 -56 10 -95 4 -38 8 -72 10 -75 1 -3 6
-45 9 -95 4 -49 9 -97 11 -105 2 -8 7 -46 10 -85 3 -38 8 -88 10 -110 6 -47
11 -104 20 -200 3 -38 8 -81 10 -95 2 -14 7 -61 10 -105 3 -44 8 -96 10 -115
5 -47 18 -192 31 -345 3 -44 8 -98 10 -120 2 -22 6 -83 9 -135 4 -52 8 -117
10 -145 3 -27 7 -93 10 -145 4 -52 8 -113 10 -135 14 -168 24 -526 15 -570 -8
-38 19 -128 58 -197 60 -104 164 -177 282 -195 54 -9 209 -10 275 -2 84 10
148 17 215 24 28 3 71 7 98 10 46 5 90 9 207 20 33 3 76 8 95 10 19 2 67 7
105 11 39 3 84 8 100 10 17 1 64 6 105 9 41 3 86 8 100 10 14 2 54 6 90 10 36
3 81 8 100 10 19 2 67 7 105 10 39 4 81 8 95 10 14 2 61 7 105 11 44 3 87 8
95 9 9 2 58 6 110 10 52 4 102 9 111 10 9 2 52 6 95 10 43 4 88 8 99 10 11 1
56 6 100 10 44 4 91 8 105 11 14 2 57 6 95 9 39 4 81 8 95 10 14 2 59 7 100
10 41 4 89 8 105 9 17 2 64 7 105 10 41 4 86 9 100 11 14 3 59 7 100 10 41 3
86 8 100 10 14 2 57 7 95 10 218 16 267 31 341 102 43 40 99 144 110 203 34
177 -20 359 -136 462 -99 89 -263 130 -413 103 -27 -5 -28 -3 -23 28 3 19 7
40 10 48 3 8 8 34 11 59 3 25 8 56 10 70 23 147 23 662 0 837 -2 17 -7 67 -10
110 -3 43 -8 96 -12 118 -6 44 -8 61 -17 155 -4 36 -9 76 -11 90 -3 14 -7 43
-10 65 -2 22 -7 57 -11 78 -3 20 -7 47 -9 60 -1 12 -5 38 -9 57 -3 19 -8 46
-10 60 -2 14 -7 41 -10 60 -3 19 -8 49 -11 65 -3 17 -10 57 -15 90 -15 92 -19
114 -35 195 -9 41 -17 86 -20 100 -3 14 -9 48 -15 75 -6 28 -12 61 -15 74 -10
53 -46 219 -59 274 -7 31 -11 59 -7 61 3 1 22 3 41 4 37 2 54 5 105 17 37 9
136 55 152 71 7 7 23 21 36 31 67 54 127 161 145 259 10 59 10 154 -2 172 -4
7 -5 12 -2 12 12 0 -39 118 -67 155 -69 92 -150 148 -257 178 -56 16 -182 31
-191 23z"/>
</g>
</svg>
