<?xml version="1.0" standalone="no"?>
<!DOCTYPE svg PUBLIC "-//W3C//DTD SVG 20010904//EN"
 "http://www.w3.org/TR/2001/REC-SVG-20010904/DTD/svg10.dtd">
<svg version="1.0" xmlns="http://www.w3.org/2000/svg"
 width="512.000000pt" height="512.000000pt" viewBox="0 0 512.000000 512.000000"
 preserveAspectRatio="xMidYMid meet">
<metadata>
Created by potrace 1.14, written by Peter Selinger 2001-2017
</metadata>
<g transform="translate(0.000000,512.000000) scale(0.100000,-0.100000)"
fill="#000000" stroke="none">
<path d="M597 5104 c-287 -62 -506 -271 -578 -552 -17 -66 -19 -112 -19 -374
l0 -298 595 0 594 0 4 -1622 c2 -1491 4 -1628 20 -1685 70 -259 252 -452 512
-541 l80 -27 1403 -3 1402 -2 0 153 0 153 -71 11 c-170 27 -301 139 -359 308
-19 54 -20 84 -20 447 0 213 -4 388 -8 388 -4 0 -37 -29 -72 -65 l-64 -65
-426 0 -425 0 -420 -420 -420 -420 -312 312 -313 313 425 425 425 425 0 425 0
425 693 693 692 692 113 0 112 0 0 88 c0 187 -37 343 -111 468 -19 32 -70 95
-114 139 -116 116 -229 177 -387 209 -68 14 -240 16 -1480 15 -1194 -1 -1413
-3 -1471 -15z m234 -304 c81 -15 171 -65 233 -129 96 -102 126 -187 126 -363
l0 -118 -447 0 -446 0 6 128 c4 86 12 145 26 183 74 215 283 340 502 299z"/>
<path d="M3447 3302 l-607 -607 0 -425 0 -425 -367 -367 -368 -368 105 -105
c58 -58 109 -105 115 -105 6 0 172 162 370 360 l360 360 425 0 425 0 608 608
607 607 0 355 0 355 -183 183 -182 182 -350 0 -350 0 -608 -608z m1275 201
l98 -98 0 -215 0 -215 -523 -523 -522 -522 -205 0 -205 0 415 415 415 415
-110 110 -110 110 -412 -412 -413 -413 0 205 0 205 517 517 518 518 220 0 220
0 97 -97z"/>
</g>
</svg>
